<mxfile host="app.diagrams.net" modified="2023-04-06T07:24:59.284Z" agent="Mozilla/5.0 (Windows NT 10.0; Win64; x64) AppleWebKit/537.36 (KHTML, like Gecko) Chrome/111.0.0.0 Safari/537.36" version="21.1.2" etag="bnkfJl6G-wI8Mur3-wyb" type="github">
  <diagram name="Страница 1" id="w4pjQmpC7VYnEP_tzc4w">
    <mxGraphModel>
      <root>
        <mxCell id="0" />
        <mxCell id="1" parent="0" />
      </root>
    </mxGraphModel>
  </diagram>
</mxfile>
